# xmcd
#
# Track frame offsets: 
#        150
#        21292
#        42148
#        61892
#        82960
#        103074
#        121045
#        140999
#        160268
#        181197
#
# Disc length: 2714 seconds
#
# Revision: 4
# Processed by: cddbd v1.5.2PL0 Copyright (c) Steve Scherf et al.
# Submitted via: ExactAudioCopy v0.95b4
#
DISCID=7d0a980a
DTITLE=Ayna - Cayimin Sekeri
DYEAR=2001
DGENRE=Other
TTITLE0=Cayimin Sekeri
TTITLE1=Anlatmaliymis Meger
TTITLE2=Olsemde Kurtulsam
TTITLE3=Kadinim
TTITLE4=Bir Sen Vardın
TTITLE5=Sana Ne Oldu Boyle
TTITLE6=Ahu Gozlum
TTITLE7=Ben Tutuyorum Dunyayi
TTITLE8=Eftalya
TTITLE9=Cocugum
EXTD=YEAR: 2001 ID3G:  12
EXTT0=
EXTT1=
EXTT2=
EXTT3=
EXTT4=
EXTT5=
EXTT6=
EXTT7=
EXTT8=
EXTT9=
PLAYORDER=
